<svg width="32" height="32" viewBox="0 0 32 32" fill="none" xmlns="http://www.w3.org/2000/svg">
  <defs>
    <linearGradient id="bg" x1="4" y1="2" x2="28" y2="30" gradientUnits="userSpaceOnUse">
      <stop stop-color="#14b8a6"/>
      <stop offset="1" stop-color="#0f766e"/>
    </linearGradient>
    <linearGradient id="shine" x1="16" y1="4" x2="16" y2="20" gradientUnits="userSpaceOnUse">
      <stop stop-color="#ffffff" stop-opacity="0.35"/>
      <stop offset="1" stop-color="#ffffff" stop-opacity="0"/>
    </linearGradient>
  </defs>
  <rect width="32" height="32" rx="8" fill="url(#bg)"/>
  <rect width="32" height="32" rx="8" fill="url(#shine)"/>
  <rect x="7" y="5" width="15" height="19" rx="2" fill="white" fill-opacity="0.22" transform="rotate(-6 14.5 14.5)"/>
  <rect x="10" y="7" width="15" height="19" rx="2" fill="white"/>
  <path d="M22 7h3v3l-3-3z" fill="#ccfbf1"/>
  <path d="M22 7l3 3H22V7z" fill="#99f6e4"/>
  <rect x="13" y="12" width="9" height="1.75" rx="0.875" fill="#0d9488"/>
  <rect x="13" y="15.5" width="7" height="1.5" rx="0.75" fill="#14b8a6" fill-opacity="0.75"/>
  <rect x="13" y="18.5" width="8" height="1.5" rx="0.75" fill="#14b8a6" fill-opacity="0.5"/>
  <circle cx="21" cy="21" r="2.25" fill="#0d9488"/>
  <path d="M20.2 21h1.6M21 20.2v1.6" stroke="white" stroke-width="0.9" stroke-linecap="round"/>
</svg>
